<svg width="13" height="12" viewBox="0 0 13 12" fill="none" xmlns="http://www.w3.org/2000/svg">
<path d="M1.8861 8.28264C1.92853 8.13413 1.94975 8.05987 1.98155 7.99061C2.00979 7.92911 2.04419 7.87063 2.08424 7.81609C2.12934 7.75465 2.18395 7.70004 2.29317 7.59082L8.75002 1.13398C9.44037 0.443628 10.5597 0.443619 11.25 1.13396C11.9404 1.82433 11.9404 2.94366 11.25 3.63403L4.79317 10.0908C4.68395 10.2 4.62934 10.2547 4.56791 10.2998C4.51336 10.3398 4.45488 10.3742 4.39339 10.4024C4.32413 10.4342 4.24987 10.4555 4.10136 10.4979L1 11.384L1.8861 8.28264Z" stroke="#DE938C" stroke-linecap="round" stroke-linejoin="round"/>
</svg>
